<svg width="85" height="10" viewBox="0 0 85 10" fill="none" xmlns="http://www.w3.org/2000/svg">
<path d="M7.26562 6.29297C7.16016 7.19531 6.82617 7.89258 6.26367 8.38477C5.70508 8.87305 4.96094 9.11719 4.03125 9.11719C3.02344 9.11719 2.21484 8.75586 1.60547 8.0332C1 7.31055 0.697266 6.34375 0.697266 5.13281V4.3125C0.697266 3.51953 0.837891 2.82227 1.11914 2.2207C1.4043 1.61914 1.80664 1.1582 2.32617 0.837891C2.8457 0.513672 3.44727 0.351562 4.13086 0.351562C5.03711 0.351562 5.76367 0.605469 6.31055 1.11328C6.85742 1.61719 7.17578 2.31641 7.26562 3.21094H6.13477C6.03711 2.53125 5.82422 2.03906 5.49609 1.73438C5.17188 1.42969 4.7168 1.27734 4.13086 1.27734C3.41211 1.27734 2.84766 1.54297 2.4375 2.07422C2.03125 2.60547 1.82812 3.36133 1.82812 4.3418V5.16797C1.82812 6.09375 2.02148 6.83008 2.4082 7.37695C2.79492 7.92383 3.33594 8.19727 4.03125 8.19727C4.65625 8.19727 5.13477 8.05664 5.4668 7.77539C5.80273 7.49023 6.02539 6.99609 6.13477 6.29297H7.26562ZM13.5176 6.77344H9.94336L9.14062 9H7.98047L11.2383 0.46875H12.2227L15.4863 9H14.332L13.5176 6.77344ZM10.2832 5.84766H13.1836L11.7305 1.85742L10.2832 5.84766ZM17.7656 8.08008H21.8086V9H16.6348V0.46875H17.7656V8.08008ZM28.9805 6.29297C28.875 7.19531 28.541 7.89258 27.9785 8.38477C27.4199 8.87305 26.6758 9.11719 25.7461 9.11719C24.7383 9.11719 23.9297 8.75586 23.3203 8.0332C22.7148 7.31055 22.4121 6.34375 22.4121 5.13281V4.3125C22.4121 3.51953 22.5527 2.82227 22.834 2.2207C23.1191 1.61914 23.5215 1.1582 24.041 0.837891C24.5605 0.513672 25.1621 0.351562 25.8457 0.351562C26.752 0.351562 27.4785 0.605469 28.0254 1.11328C28.5723 1.61719 28.8906 2.31641 28.9805 3.21094H27.8496C27.752 2.53125 27.5391 2.03906 27.2109 1.73438C26.8867 1.42969 26.4316 1.27734 25.8457 1.27734C25.127 1.27734 24.5625 1.54297 24.1523 2.07422C23.7461 2.60547 23.543 3.36133 23.543 4.3418V5.16797C23.543 6.09375 23.7363 6.83008 24.123 7.37695C24.5098 7.92383 25.0508 8.19727 25.7461 8.19727C26.3711 8.19727 26.8496 8.05664 27.1816 7.77539C27.5176 7.49023 27.7402 6.99609 27.8496 6.29297H28.9805ZM36.5273 0.46875V6.26953C36.5234 7.07422 36.2695 7.73242 35.7656 8.24414C35.2656 8.75586 34.5859 9.04297 33.7266 9.10547L33.4277 9.11719C32.4941 9.11719 31.75 8.86523 31.1953 8.36133C30.6406 7.85742 30.3594 7.16406 30.3516 6.28125V0.46875H31.4648V6.24609C31.4648 6.86328 31.6348 7.34375 31.9746 7.6875C32.3145 8.02734 32.7988 8.19727 33.4277 8.19727C34.0645 8.19727 34.5508 8.02734 34.8867 7.6875C35.2266 7.34766 35.3965 6.86914 35.3965 6.25195V0.46875H36.5273ZM39.4336 8.08008H43.4766V9H38.3027V0.46875H39.4336V8.08008ZM49.5879 6.77344H46.0137L45.2109 9H44.0508L47.3086 0.46875H48.293L51.5566 9H50.4023L49.5879 6.77344ZM46.3535 5.84766H49.2539L47.8008 1.85742L46.3535 5.84766ZM61.541 0.785156H58.4355V9H58.1191V0.785156H55.0137V0.46875H61.541V0.785156ZM68.7773 0.46875V6.24609C68.7773 7.14844 68.5156 7.85352 67.9922 8.36133C67.4688 8.86523 66.7598 9.11719 65.8652 9.11719C64.9707 9.11719 64.2617 8.86523 63.7383 8.36133C63.2148 7.85352 62.9512 7.15625 62.9473 6.26953V0.46875H63.2637V6.23438C63.2637 7.02344 63.5 7.64844 63.9727 8.10938C64.4492 8.57031 65.0801 8.80078 65.8652 8.80078C66.6504 8.80078 67.2793 8.57031 67.752 8.10938C68.2246 7.64844 68.4609 7.02148 68.4609 6.22852V0.46875H68.7773ZM71.0391 9V0.46875H73.4004C74.0605 0.46875 74.6582 0.625 75.1934 0.9375C75.7285 1.25 76.1484 1.68945 76.4531 2.25586C76.7578 2.81836 76.9141 3.44922 76.9219 4.14844V5.25586C76.9219 5.9668 76.7715 6.60742 76.4707 7.17773C76.1738 7.74805 75.7578 8.19336 75.2227 8.51367C74.6875 8.83398 74.0898 8.99609 73.4297 9H71.0391ZM71.3555 0.785156V8.68359H73.4004C73.998 8.68359 74.541 8.53906 75.0293 8.25C75.5215 7.95703 75.9062 7.55078 76.1836 7.03125C76.4609 6.50781 76.6016 5.92773 76.6055 5.29102V4.19531C76.6055 3.55859 76.4688 2.98047 76.1953 2.46094C75.9258 1.94141 75.5469 1.53516 75.0586 1.24219C74.5742 0.945312 74.0371 0.792969 73.4473 0.785156H71.3555ZM84.9316 5.37305C84.9316 6.11133 84.7988 6.76562 84.5332 7.33594C84.2715 7.90234 83.8965 8.3418 83.4082 8.6543C82.9199 8.96289 82.3574 9.11719 81.7207 9.11719C80.7598 9.11719 79.9824 8.77539 79.3887 8.0918C78.7949 7.4082 78.498 6.48633 78.498 5.32617V4.0957C78.498 3.36133 78.6289 2.70898 78.8906 2.13867C79.1562 1.56836 79.5332 1.12891 80.0215 0.820312C80.5137 0.507813 81.0762 0.351562 81.709 0.351562C82.3457 0.351562 82.9082 0.507813 83.3965 0.820312C83.8887 1.12891 84.2676 1.57031 84.5332 2.14453C84.7988 2.71484 84.9316 3.36523 84.9316 4.0957V5.37305ZM84.6152 4.08398C84.6152 3.05273 84.3535 2.22656 83.8301 1.60547C83.3066 0.980469 82.5996 0.667969 81.709 0.667969C80.8301 0.667969 80.1289 0.978516 79.6055 1.59961C79.082 2.2168 78.8203 3.05859 78.8203 4.125V5.37305C78.8203 6.05273 78.9375 6.6543 79.1719 7.17773C79.4102 7.69727 79.748 8.09766 80.1855 8.37891C80.623 8.66016 81.1348 8.80078 81.7207 8.80078C82.6113 8.80078 83.3164 8.49023 83.8359 7.86914C84.3555 7.24805 84.6152 6.40039 84.6152 5.32617V4.08398Z" fill="black"/>
</svg>
